# xmcd CD database file
#
# Track frame offsets:
#	150
#	16050
#	29713
#	41494
#	61790
#	85714
#	110047
#	119304
#	150175
#	160077
#	173733
#	204971
#	221929
#	232687
#	256083
#	283618
#
# Disc length: 4000 seconds
#
# Revision: 0
# Processed by: cddbd v1.5.2PL0 Copyright (c) Steve Scherf et al.
# Submitted via: CDex 1.70beta2
#
DISCID=c40f9e10
DTITLE=Oscar Bauer with Lupo - The Oak, the Cypress
DYEAR=2001
DGENRE=Blues
TTITLE0=Police Dog Blues
TTITLE1=Mombasa
TTITLE2=The Fisherman
TTITLE3=Nightflyer
TTITLE4=Hesitation Blues
TTITLE5=Hobocar Blues
TTITLE6=June Bag
TTITLE7=Tales of my Private Ocean
TTITLE8=Sun Wheel Dance
TTITLE9=D*Note
TTITLE10=Genesis
TTITLE11=Bannister River
TTITLE12=Mona Ray
TTITLE13=Airproofing
TTITLE14=Medley: Day Tripper/Lady Madonna
TTITLE15=Embryonic Journey
EXTD=YEAR: 2001
EXTT0=
EXTT1=
EXTT2=
EXTT3=
EXTT4=
EXTT5=
EXTT6=
EXTT7=
EXTT8=
EXTT9=
EXTT10=
EXTT11=
EXTT12=
EXTT13=
EXTT14=
EXTT15=
PLAYORDER=
